<?xml version="1.0" encoding="UTF-8" standalone="no"?>
<!-- Created with Inkscape (http://www.inkscape.org/) -->

<svg
   xmlns:dc="http://purl.org/dc/elements/1.1/"
   xmlns:cc="http://creativecommons.org/ns#"
   xmlns:rdf="http://www.w3.org/1999/02/22-rdf-syntax-ns#"
   xmlns:svg="http://www.w3.org/2000/svg"
   xmlns="http://www.w3.org/2000/svg"
   xmlns:sodipodi="http://sodipodi.sourceforge.net/DTD/sodipodi-0.dtd"
   xmlns:inkscape="http://www.inkscape.org/namespaces/inkscape"
   id="svg3504"
   version="1.1"
   inkscape:version="0.91 r13725"
   width="11.955665cm"
   height="9.4185495cm"
   viewBox="0 0 423.6259 333.72814"
   sodipodi:docname="logo_skik_nowe.svg">
  <metadata
     id="metadata3510">
    <rdf:RDF>
      <cc:Work
         rdf:about="">
        <dc:format>image/svg+xml</dc:format>
        <dc:type
           rdf:resource="http://purl.org/dc/dcmitype/StillImage" />
        <dc:title></dc:title>
      </cc:Work>
    </rdf:RDF>
  </metadata>
  <defs
     id="defs3508" />
  <sodipodi:namedview
     pagecolor="#ffffff"
     bordercolor="#666666"
     borderopacity="1"
     objecttolerance="10"
     gridtolerance="10"
     guidetolerance="10"
     inkscape:pageopacity="0"
     inkscape:pageshadow="2"
     inkscape:window-width="1336"
     inkscape:window-height="712"
     id="namedview3506"
     showgrid="false"
     inkscape:zoom="0.5"
     inkscape:cx="443.73666"
     inkscape:cy="134.3144"
     inkscape:window-x="30"
     inkscape:window-y="0"
     inkscape:window-maximized="1"
     inkscape:current-layer="layer2"
     showguides="true"
     inkscape:guide-bbox="true"
     fit-margin-top="0"
     fit-margin-left="0"
     fit-margin-right="0"
     fit-margin-bottom="0"
     borderlayer="true"
     units="cm">
    <sodipodi:guide
       position="1553.7389,399.43571"
       orientation="1,0"
       id="guide4287" />
    <sodipodi:guide
       position="693.57886,-924.93475"
       orientation="0,1"
       id="guide4309" />
  </sodipodi:namedview>
  <g
     inkscape:groupmode="layer"
     id="layer1"
     inkscape:label="Tło"
     style="display:inline"
     transform="translate(1192.4127,491.91596)" />
  <g
     inkscape:groupmode="layer"
     id="layer2"
     inkscape:label="Obrys"
     style="display:inline"
     transform="translate(1192.4127,491.91596)">
    <flowRoot
       xml:space="preserve"
       id="flowRoot4413"
       style="font-style:normal;font-weight:normal;font-size:40px;line-height:125%;font-family:sans-serif;letter-spacing:0px;word-spacing:0px;fill:#ffffff;fill-opacity:1;stroke:none;stroke-width:1px;stroke-linecap:butt;stroke-linejoin:miter;stroke-opacity:1"
       transform="translate(-699.33379,214.20267)"><flowRegion
         id="flowRegion4415"><rect
           id="rect4417"
           width="213.54625"
           height="70.710678"
           x="147.07822"
           y="257.72125"
           style="fill:#ffffff" /></flowRegion><flowPara
         id="flowPara4419" /></flowRoot>    <g
       id="g4450"
       transform="matrix(1.7564973,0,0,1.7564973,-1715.955,-491.25249)">
      <path
         style="display:inline;fill:#000000;fill-rule:evenodd;stroke:#000000;stroke-width:2.05737543px;stroke-linecap:butt;stroke-linejoin:miter;stroke-opacity:1"
         d="m 349.86848,93.98472 c 0,0 -5.72208,4.82198 -4.9827,5.49706 0.73936,0.67507 7.58657,-3.37539 7.58657,-3.37539 z"
         id="path4360"
         inkscape:connector-curvature="0" />
      <path
         inkscape:connector-curvature="0"
         style="opacity:0.98000004;fill:#0a6bbb;fill-opacity:0.98039216;fill-rule:evenodd;stroke:none;stroke-width:0.25;stroke-linecap:butt;stroke-linejoin:miter;stroke-opacity:1"
         d="m 376.9494,-0.37513 c -0.5178,-0.0124 -1.05054,0.0232 -1.57519,0.0321 -3.84618,1.26549 -7.40902,3.33509 -10.72086,6.07971 -6.13015,5.08026 -11.36167,12.39589 -15.7116,20.54162 -6.29057,11.77979 -10.70825,25.23511 -13.61402,36.10854 13.53029,-21.66733 27.91751,-33.29652 38.04134,-38.18602 20.70179,-9.99829 43.6027,-1.79619 43.6027,-1.79619 0,0 -16.38879,-22.21276 -40.02237,-22.77979 z"
         id="path4362" />
      <path
         inkscape:connector-curvature="0"
         style="opacity:0.98000004;fill:#0a3e68;fill-opacity:0.98039216;fill-rule:evenodd;stroke:none;stroke-width:0.25;stroke-linecap:butt;stroke-linejoin:miter;stroke-opacity:1"
         d="M 365.85885,0.99913 C 356.28701,3.5819 345.899,10.0901 335.16297,22.85471 288.09234,78.81948 299.2031,189.61865 299.2031,189.61865 303.54687,135.75578 315.81171,97.87183 329.83871,71.85 c 2.56427,-11.65316 7.67858,-30.7345 16.37862,-47.02632 4.47165,-8.37362 9.88462,-16.00675 16.46705,-21.4618 1.02478,-0.84926 2.08976,-1.62631 3.17447,-2.36275 z"
         id="path4364" />
      <path
         sodipodi:type="star"
         style="fill:#84b4dd;fill-opacity:1;stroke:none;stroke-width:1.43837321;stroke-opacity:1"
         id="path4366"
         sodipodi:sides="5"
         sodipodi:cx="69.69677"
         sodipodi:cy="20.75609"
         sodipodi:r1="5.8828931"
         sodipodi:r2="2.9373074"
         sodipodi:arg1="0.54678884"
         sodipodi:arg2="1.1751074"
         inkscape:flatsided="false"
         inkscape:rounded="0"
         inkscape:randomized="0"
         d="m 74.721928,23.814882 -3.892991,-0.348447 -2.488392,3.014084 -0.871608,-3.810131 -3.635519,-1.435199 3.354308,-2.006343 0.241518,-3.901085 2.944684,2.570142 3.784786,-0.975804 -1.534394,3.594779 z"
         inkscape:transform-center-x="0.6620103"
         inkscape:transform-center-y="-0.070394626"
         transform="matrix(2.6543375,0.29682337,-0.29682337,2.6543375,246.83483,-47.84098)" />
      <path
         inkscape:connector-curvature="0"
         style="color:#000000;clip-rule:nonzero;display:inline;overflow:visible;visibility:visible;opacity:1;isolation:auto;mix-blend-mode:normal;color-interpolation:sRGB;color-interpolation-filters:linearRGB;solid-color:#000000;solid-opacity:1;fill:#ffcf2b;fill-opacity:1;fill-rule:evenodd;stroke:none;stroke-width:0.25;stroke-linecap:butt;stroke-linejoin:miter;stroke-miterlimit:4;stroke-dasharray:none;stroke-dashoffset:0;stroke-opacity:1;color-rendering:auto;image-rendering:auto;shape-rendering:auto;text-rendering:auto;enable-background:accumulate"
         d="m 464.75353,42.01001 c -20.86325,0.45384 -48.63154,14.13528 -81.50745,44.58316 5.39892,-3.31493 11.07035,-6.4638 17.09391,-9.35061 69.4303,-33.27459 138.89695,-13.0354 138.89695,-13.0354 C 517.66558,50.83747 494.48542,44.05054 471.6168,42.32343 l -0.004,0.0401 c -0.50202,-0.065 -1.01535,-0.10904 -1.52695,-0.15677 -1.24898,-0.0821 -2.49451,-0.14073 -3.74105,-0.19278 -0.52812,-0.006 -1.05397,-0.0165 -1.59125,-0.004 z"
         id="path4368" />
      <path
         style="color:#000000;clip-rule:nonzero;display:inline;overflow:visible;visibility:visible;opacity:1;isolation:auto;mix-blend-mode:normal;color-interpolation:sRGB;color-interpolation-filters:linearRGB;solid-color:#000000;solid-opacity:1;fill:#ffcf2b;fill-opacity:1;fill-rule:evenodd;stroke:none;stroke-width:0.25;stroke-linecap:butt;stroke-linejoin:miter;stroke-miterlimit:4;stroke-dasharray:none;stroke-dashoffset:0;stroke-opacity:1;color-rendering:auto;image-rendering:auto;shape-rendering:auto;text-rendering:auto;enable-background:accumulate"
         d="m 444.86137,42.55437 c -24.73869,2.26048 -48.16584,10.01777 -67.66033,21.27293 -23.62022,13.63713 -40.25307,31.71825 -51.92464,49.97575 -0.0677,0.46995 -0.14278,0.93195 -0.20895,1.40239 -1.47188,10.47657 -2.53892,21.02035 -2.45519,28.95997 0.002,0.16788 0.0124,0.31654 0.0165,0.4822 11.30923,-16.26906 27.13927,-34.52411 48.70594,-50.10834 12.81438,-16.03457 48.00819,-43.27922 73.52708,-51.9849 z"
         id="path4370"
         inkscape:connector-curvature="0" />
      <path
         style="color:#000000;clip-rule:nonzero;display:inline;overflow:visible;visibility:visible;opacity:1;isolation:auto;mix-blend-mode:normal;color-interpolation:sRGB;color-interpolation-filters:linearRGB;solid-color:#000000;solid-opacity:1;fill:#ffcf2b;fill-opacity:1;fill-rule:evenodd;stroke:none;stroke-width:0.25;stroke-linecap:butt;stroke-linejoin:miter;stroke-miterlimit:4;stroke-dasharray:none;stroke-dashoffset:0;stroke-opacity:1;color-rendering:auto;image-rendering:auto;shape-rendering:auto;text-rendering:auto;enable-background:accumulate"
         d="m 321.29427,120.32878 c -17.10017,29.66968 -21.63228,58.45302 -22.09268,67.94562 0,0 5.91553,-17.38352 20.53759,-39.45178 -0.11933,-1.4468 -0.19545,-2.97208 -0.21298,-4.62508 -0.0716,-6.79281 0.67955,-15.21369 1.76807,-23.86876 z"
         id="path4372"
         inkscape:connector-curvature="0" />
      <g
         style="font-style:normal;font-variant:normal;font-weight:900;font-stretch:normal;font-size:80px;line-height:125%;font-family:Adagio_Slab;-inkscape-font-specification:'Adagio_Slab, Heavy';text-align:start;letter-spacing:0px;word-spacing:0px;writing-mode:lr-tb;text-anchor:start;fill:#84b4dd;fill-opacity:1;stroke:none;stroke-width:1px;stroke-linecap:butt;stroke-linejoin:miter;stroke-opacity:1"
         id="g4374"
         transform="matrix(1.084064,0,0,1.084064,934.91135,-298.8695)">
        <path
           d="m -527.0891,397.24198 c 0,-2.8 1.84,-4.24 5.52,-4.24 1.12,0 2.4,0.16 3.6,0.4 l 0.72,6.24 c 2.32,0.4 6.64,0.4 9.04,0 l 0,-14.4 c -3.76,-1.92 -7.6,-3.52 -13.36,-3.52 -13.52,0 -19.92,7.2 -19.92,17.04 0,17.12 21.52,14.16 21.52,22.48 0,2.16 -1.6,4.32 -6.08,4.32 -1.68,0 -3.28,-0.16 -4.8,-0.4 l -0.64,-6.24 c -2.32,-0.32 -6.64,-0.32 -9.04,0 l 0,14.48 c 3.76,1.92 8.08,3.52 14.48,3.52 11.52,0 20.56,-5.52 20.56,-16.4 0,-18 -21.6,-15.84 -21.6,-23.28 z"
           id="path4376"
           inkscape:connector-curvature="0"
           style="fill:#84b4dd;fill-opacity:1" />
        <path
           d="m -482.54752,426.76198 0,-34.88 4.48,-0.8 c 0.4,-2.32 0.4,-5.84 0,-8.56 l -23.76,0 c -0.32,2.72 -0.32,6.24 0,8.56 l 4.88,0.8 0,34.88 -4.88,0.8 c -0.32,2.32 -0.32,5.84 0,8.56 l 23.76,0 c 0.4,-2.72 0.4,-6.24 0,-8.56 z m 31.93367,0.46794 -4.89367,-0.46794 -11.2,-17.76 -0.275,-0.3375 0,-0.16 0.275,-0.3825 10.4,-16.32 6,-0.72 c 0.32,-2.32 0.32,-5.84 0,-8.56 l -22.56,0 c -0.4,2.72 -0.4,6.24 0,8.56 l 2.88,0.48 -10.88,16.96 14.56,27.6 15.69367,-0.33206 c 0.4,-2.72 0.4,-6.24 0,-8.56 z"
           id="path4378"
           inkscape:connector-curvature="0"
           sodipodi:nodetypes="ccccccccccccccccccccccccccccc"
           style="fill:#84b4dd;fill-opacity:1" />
        <path
           d="m -426.36627,426.76198 0,-34.88 4.48,-0.8 c 0.4,-2.32 0.4,-5.84 0,-8.56 l -23.76,0 c -0.32,2.72 -0.32,6.24 0,8.56 l 4.88,0.8 0,34.88 -4.88,0.8 c -0.32,2.32 -0.32,5.84 0,8.56 l 23.76,0 c 0.4,-2.72 0.4,-6.24 0,-8.56 l -4.48,-0.8 z"
           id="path4380"
           inkscape:connector-curvature="0"
           style="fill:#84b4dd;fill-opacity:1" />
        <path
           d="m -397.54752,426.76198 0,-34.88 4.48,-0.8 c 0.4,-2.32 0.4,-5.84 0,-8.56 l -23.76,0 c -0.32,2.72 -0.32,6.24 0,8.56 l 4.88,0.8 0,34.88 -4.88,0.8 c -0.32,2.32 -0.32,5.84 0,8.56 l 23.76,0 c 0.4,-2.72 0.4,-6.24 0,-8.56 z m 31.76763,0.96603 -4.72763,-0.96603 -11.2,-17.76 -0.2539,-0.34788 0,-0.16 0.2539,-0.37212 10.4,-16.32 6,-0.72 c 0.32,-2.32 0.32,-5.84 0,-8.56 l -22.56,0 c -0.4,2.72 -0.4,6.24 0,8.56 l 2.88,0.48 -10.88,16.96 14.56,27.6 15.52763,0.16603 c 0.4,-2.72 0.4,-6.24 0,-8.56 z"
           id="path4382"
           inkscape:connector-curvature="0"
           sodipodi:nodetypes="ccccccccccccccccccccccccccccc"
           style="fill:#84b4dd;fill-opacity:1" />
      </g>
    </g>
  </g>
</svg>
